<?xml version="1.0" encoding="UTF-8"?>
<svg xmlns="http://www.w3.org/2000/svg" viewBox="0 0 128 128" width="128" height="128">
  <!-- Background rounded square -->
  <rect x="4" y="4" width="120" height="120" rx="20" ry="20" fill="#1565C0"/>

  <!-- Inner card -->
  <rect x="14" y="24" width="100" height="84" rx="6" ry="6" fill="#FFFFFF" opacity="0.95"/>

  <!-- Title bar -->
  <rect x="14" y="24" width="100" height="14" rx="6" ry="6" fill="#E3F2FD"/>
  <rect x="14" y="32" width="100" height="6" fill="#E3F2FD"/>

  <!-- Divider (center vertical line) -->
  <line x1="64" y1="38" x2="64" y2="108" stroke="#90CAF9" stroke-width="2"/>

  <!-- Left panel files -->
  <!-- Folder 1 -->
  <rect x="20" y="42" width="8" height="7" rx="1" fill="#FFA726"/>
  <rect x="20" y="41" width="5" height="3" rx="1" fill="#FFA726"/>
  <rect x="30" y="43" width="28" height="2" rx="1" fill="#424242"/>

  <!-- Folder 2 -->
  <rect x="20" y="53" width="8" height="7" rx="1" fill="#FFA726"/>
  <rect x="20" y="52" width="5" height="3" rx="1" fill="#FFA726"/>
  <rect x="30" y="54" width="22" height="2" rx="1" fill="#424242"/>

  <!-- File 1 -->
  <rect x="21" y="63" width="7" height="8" rx="1" fill="#E0E0E0" stroke="#BDBDBD" stroke-width="0.5"/>
  <path d="M25 63 L28 66 L28 63 Z" fill="#BDBDBD"/>
  <rect x="30" y="65" width="26" height="2" rx="1" fill="#616161"/>

  <!-- File 2 -->
  <rect x="21" y="74" width="7" height="8" rx="1" fill="#E0E0E0" stroke="#BDBDBD" stroke-width="0.5"/>
  <path d="M25 74 L28 77 L28 74 Z" fill="#BDBDBD"/>
  <rect x="30" y="76" width="20" height="2" rx="1" fill="#616161"/>

  <!-- Cursor highlight on left panel -->
  <rect x="18" y="85" width="42" height="11" rx="2" fill="#1A73E8" opacity="0.15"/>
  <rect x="21" y="86" width="7" height="8" rx="1" fill="#E0E0E0" stroke="#BDBDBD" stroke-width="0.5"/>
  <path d="M25 86 L28 89 L28 86 Z" fill="#BDBDBD"/>
  <rect x="30" y="88" width="24" height="2" rx="1" fill="#1565C0"/>

  <!-- File 4 left -->
  <rect x="21" y="97" width="7" height="8" rx="1" fill="#E0E0E0" stroke="#BDBDBD" stroke-width="0.5"/>
  <path d="M25 97 L28 100 L28 97 Z" fill="#BDBDBD"/>
  <rect x="30" y="99" width="18" height="2" rx="1" fill="#616161"/>

  <!-- Right panel files -->
  <!-- Folder 1 -->
  <rect x="70" y="42" width="8" height="7" rx="1" fill="#FFA726"/>
  <rect x="70" y="41" width="5" height="3" rx="1" fill="#FFA726"/>
  <rect x="80" y="43" width="24" height="2" rx="1" fill="#424242"/>

  <!-- File 1 -->
  <rect x="71" y="53" width="7" height="8" rx="1" fill="#E0E0E0" stroke="#BDBDBD" stroke-width="0.5"/>
  <path d="M75 53 L78 56 L78 53 Z" fill="#BDBDBD"/>
  <rect x="80" y="55" width="22" height="2" rx="1" fill="#616161"/>

  <!-- File 2 -->
  <rect x="71" y="63" width="7" height="8" rx="1" fill="#E0E0E0" stroke="#BDBDBD" stroke-width="0.5"/>
  <path d="M75 63 L78 66 L78 63 Z" fill="#BDBDBD"/>
  <rect x="80" y="65" width="28" height="2" rx="1" fill="#616161"/>

  <!-- Folder 2 -->
  <rect x="70" y="74" width="8" height="7" rx="1" fill="#FFA726"/>
  <rect x="70" y="73" width="5" height="3" rx="1" fill="#FFA726"/>
  <rect x="80" y="76" width="20" height="2" rx="1" fill="#424242"/>

  <!-- File 3 -->
  <rect x="71" y="86" width="7" height="8" rx="1" fill="#E0E0E0" stroke="#BDBDBD" stroke-width="0.5"/>
  <path d="M75 86 L78 89 L78 86 Z" fill="#BDBDBD"/>
  <rect x="80" y="88" width="26" height="2" rx="1" fill="#616161"/>

  <!-- File 4 -->
  <rect x="71" y="97" width="7" height="8" rx="1" fill="#E0E0E0" stroke="#BDBDBD" stroke-width="0.5"/>
  <path d="M75 97 L78 100 L78 97 Z" fill="#BDBDBD"/>
  <rect x="80" y="99" width="16" height="2" rx="1" fill="#616161"/>

  <!-- Transfer arrows in center -->
  <path d="M58 30 L68 30 L65 27 M68 30 L65 33" stroke="#FFFFFF" stroke-width="2" fill="none" stroke-linecap="round" stroke-linejoin="round"/>
</svg>
